<?xml version="1.0" encoding="iso-8859-1"?>
<!-- Generator: Adobe Illustrator 19.0.0, SVG Export Plug-In . SVG Version: 6.00 Build 0)  -->
<svg version="1.1" id="Capa_1" xmlns="http://www.w3.org/2000/svg" xmlns:xlink="http://www.w3.org/1999/xlink" x="0px" y="0px"
	 viewBox="0 0 512.001 512.001" style="enable-background:new 0 0 512.001 512.001;" xml:space="preserve">
<path style="fill:#64B5F6;" d="M501.76,162.361L289.92,307.428l-6.187,4.267c-16.759,11.31-38.707,11.31-55.467,0l-6.187-4.267
	L10.24,162.574c3.757-5.427,8.54-10.065,14.08-13.653L221.227,21.348c20.99-14.337,48.645-14.252,69.547,0.213L487.68,149.134
	C493.111,152.686,497.877,157.162,501.76,162.361z"/>
<path style="fill:#1E88E5;" d="M499.414,482.148c-10.038,12.158-24.98,19.199-40.747,19.2H53.334
	c-15.817-0.047-30.806-7.073-40.96-19.2l209.707-174.72l6.187,4.267c16.759,11.31,38.707,11.31,55.467,0l6.187-4.267
	L499.414,482.148z"/>
<g>
	<path style="fill:#2196F3;" d="M222.08,307.428L12.374,482.148C4.398,472.559,0.022,460.486,0,448.014V193.721
		c-0.04-11.216,3.552-22.143,10.24-31.147L222.08,307.428z"/>
	<path style="fill:#2196F3;" d="M512,193.721v254.293c0.003,12.514-4.46,24.617-12.587,34.133L289.92,307.428l211.84-145.067
		C508.452,171.444,512.042,182.439,512,193.721z"/>
</g>
<g>
</g>
<g>
</g>
<g>
</g>
<g>
</g>
<g>
</g>
<g>
</g>
<g>
</g>
<g>
</g>
<g>
</g>
<g>
</g>
<g>
</g>
<g>
</g>
<g>
</g>
<g>
</g>
<g>
</g>
</svg>
