<svg xmlns="http://www.w3.org/2000/svg" xmlns:xlink="http://www.w3.org/1999/xlink" width="854" height="200" viewBox="0 0 854 200">
  <defs>
    <style>
      .cls-1 {
        clip-path: url(#clip-custom_1);
      }

      .cls-2 {
        font-size: 25px;
        font-family: ProximaNova-Bold, Proxima Nova;
        font-weight: 700;
      }

      .cls-3 {
        fill: #12c6b7;
      }

      .cls-4 {
        fill: #000;
      }

      .cls-5 {
        fill: #010101;
      }

      .cls-11, .cls-12, .cls-13, .cls-14, .cls-15, .cls-16, .cls-17, .cls-18, .cls-6, .cls-7, .cls-8, .cls-9 {
        fill: none;
      }

      .cls-6 {
        stroke: #59f8e0;
      }

      .cls-11, .cls-6, .cls-7 {
        stroke-linecap: round;
      }

      .cls-11, .cls-12, .cls-17, .cls-18, .cls-6, .cls-7, .cls-8, .cls-9 {
        stroke-linejoin: round;
      }

      .cls-11, .cls-12, .cls-13, .cls-16, .cls-7, .cls-8 {
        stroke: #010101;
      }

      .cls-12, .cls-17, .cls-18, .cls-8, .cls-9 {
        stroke-linecap: square;
      }

      .cls-15, .cls-18, .cls-8, .cls-9 {
        stroke-width: 2px;
      }

      .cls-14, .cls-15, .cls-17, .cls-9 {
        stroke: #11ead8;
      }

      .cls-10 {
        fill: #11ead8;
      }

      .cls-11 {
        stroke-width: 1.027px;
      }

      .cls-13, .cls-14, .cls-16 {
        stroke-miterlimit: 10;
      }

      .cls-16 {
        stroke-width: 1.378px;
      }

      .cls-18 {
        stroke: #000;
      }

      .cls-19 {
        fill: #fff;
      }
    </style>
    <clipPath id="clip-custom_1">
      <rect width="854" height="200"/>
    </clipPath>
  </defs>
  <g id="custom_1" data-name="custom – 1" class="cls-1">
    <rect class="cls-19" width="854" height="200"/>
    <g id="Main_title" data-name="Main title" transform="translate(261 55)">
      <text id="Hi_I_am_Tina_Kuzmenko._Frontend_developer_based_in_Amsterdam." data-name="Hi! I am Tina Kuzmenko. 
Frontend developer based in 
Amsterdam." class="cls-2" transform="translate(0 23)"><tspan x="0" y="0">Hi! I am Tina Kuzmenko. </tspan><tspan class="cls-3"><tspan x="0" y="30">Frontend developer</tspan><tspan class="cls-4" y="30" xml:space="preserve"> based in </tspan></tspan><tspan x="0" y="60">Amsterdam.</tspan></text>
    </g>
    <g id="Сгруппировать_75" data-name="Сгруппировать 75" transform="translate(739.443 34.811)">
      <g id="Сгруппировать_72" data-name="Сгруппировать 72" transform="translate(17.146 34.713)">
        <path id="Контур_98" data-name="Контур 98" class="cls-5" d="M363.345,256.069a3.006,3.006,0,1,1-3.005-3.005A3.006,3.006,0,0,1,363.345,256.069Z" transform="translate(-357.333 -253.064)"/>
        <path id="Контур_99" data-name="Контур 99" class="cls-6" d="M380.1,256.069a3.005,3.005,0,1,1-3.005-3.005A3.005,3.005,0,0,1,380.1,256.069Z" transform="translate(-357.258 -253.064)"/>
      </g>
      <g id="Сгруппировать_73" data-name="Сгруппировать 73" transform="translate(0 17.356)">
        <path id="Контур_100" data-name="Контур 100" class="cls-6" d="M346.588,239.013a3.005,3.005,0,1,1-3.005-3.005A3,3,0,0,1,346.588,239.013Z" transform="translate(-340.577 -236.008)"/>
        <path id="Контур_101" data-name="Контур 101" class="cls-7" d="M363.345,239.013a3.006,3.006,0,1,1-3.005-3.005A3.005,3.005,0,0,1,363.345,239.013Z" transform="translate(-340.292 -236.008)"/>
        <path id="Контур_102" data-name="Контур 102" class="cls-5" d="M380.1,239.013a3.005,3.005,0,1,1-3.005-3.005A3,3,0,0,1,380.1,239.013Z" transform="translate(-340.008 -236.008)"/>
        <path id="Контур_103" data-name="Контур 103" class="cls-7" d="M396.858,239.013a3.006,3.006,0,1,1-3.006-3.005A3.005,3.005,0,0,1,396.858,239.013Z" transform="translate(-339.723 -236.008)"/>
      </g>
      <g id="Сгруппировать_74" data-name="Сгруппировать 74" transform="translate(17.146)">
        <path id="Контур_104" data-name="Контур 104" class="cls-5" d="M363.345,221.957a3.006,3.006,0,1,1-3.005-3.005A3.005,3.005,0,0,1,363.345,221.957Z" transform="translate(-357.333 -218.952)"/>
        <path id="Контур_105" data-name="Контур 105" class="cls-6" d="M380.1,221.957a3.005,3.005,0,1,1-3.005-3.005A3,3,0,0,1,380.1,221.957Z" transform="translate(-357.258 -218.952)"/>
      </g>
    </g>
    <g id="Сгруппировать_34" data-name="Сгруппировать 34" transform="translate(12.407 152.891)">
      <path id="Контур_17" data-name="Контур 17" class="cls-8" d="M218.333,432.846c12.56,0,12.56,12.315,25.12,12.315s12.558-12.315,25.117-12.315,12.559,12.315,25.118,12.315,12.56-12.315,25.119-12.315" transform="translate(-218.333 -411.294)"/>
      <path id="Контур_18" data-name="Контур 18" class="cls-9" d="M218.333,418.817c12.56,0,12.56,12.316,25.12,12.316s12.558-12.316,25.117-12.316,12.559,12.316,25.118,12.316,12.56-12.316,25.119-12.316" transform="translate(-218.333 -408.041)"/>
      <path id="Контур_19" data-name="Контур 19" class="cls-8" d="M218.333,404.788c12.56,0,12.56,12.316,25.12,12.316s12.558-12.316,25.117-12.316S281.129,417.1,293.688,417.1s12.56-12.316,25.119-12.316" transform="translate(-218.333 -404.788)"/>
    </g>
    <g id="Сгруппировать_76" data-name="Сгруппировать 76" transform="translate(-357.532 -879.989)">
      <path id="Контур_86" data-name="Контур 86" class="cls-10" d="M489.549,477.1l12.28-21.269,12.28,21.269Z" transform="translate(491.845 540.831)"/>
      <path id="Контур_87" data-name="Контур 87" class="cls-11" d="M495.049,474.1l12.28-21.269,12.28,21.269Z" transform="translate(492.243 538.95)"/>
    </g>
    <g id="Сгруппировать_64" data-name="Сгруппировать 64" transform="translate(33.843 31.681)">
      <line id="Линия_70" data-name="Линия 70" class="cls-12" x1="17.006" transform="translate(20.628)"/>
      <line id="Линия_71" data-name="Линия 71" class="cls-12" x1="37.432" transform="translate(10.415 5.549)"/>
      <line id="Линия_72" data-name="Линия 72" class="cls-12" x1="47.642" transform="translate(5.31 11.098)"/>
      <line id="Линия_73" data-name="Линия 73" class="cls-12" x1="53.782" transform="translate(2.24 16.647)"/>
      <line id="Линия_74" data-name="Линия 74" class="cls-12" x1="57.157" transform="translate(0.552 22.197)"/>
      <line id="Линия_75" data-name="Линия 75" class="cls-12" x1="58.261" transform="translate(0 27.746)"/>
      <line id="Линия_76" data-name="Линия 76" class="cls-12" x1="57.257" transform="translate(0.502 33.295)"/>
      <line id="Линия_77" data-name="Линия 77" class="cls-12" x1="53.989" transform="translate(2.136 38.844)"/>
      <line id="Линия_78" data-name="Линия 78" class="cls-12" x1="47.99" transform="translate(5.136 44.393)"/>
      <line id="Линия_79" data-name="Линия 79" class="cls-12" x1="38.032" transform="translate(10.115 49.943)"/>
      <line id="Линия_80" data-name="Линия 80" class="cls-12" x1="18.585" transform="translate(19.838 55.492)"/>
    </g>
    <g id="Сгруппировать_54" data-name="Сгруппировать 54" transform="translate(525.444 147.051) rotate(45)">
      <path id="Контур_77" data-name="Контур 77" class="cls-13" d="M43.631,468.583a2.97,2.97,0,1,1-2.97-2.97A2.97,2.97,0,0,1,43.631,468.583Z" transform="translate(-37.691 -434.003)"/>
      <path id="Контур_78" data-name="Контур 78" class="cls-14" d="M58.082,454.132a2.97,2.97,0,1,1-2.97-2.97A2.97,2.97,0,0,1,58.082,454.132Z" transform="translate(-41.605 -430.089)"/>
      <path id="Контур_79" data-name="Контур 79" class="cls-14" d="M72.533,439.681a2.97,2.97,0,1,1-2.97-2.97A2.97,2.97,0,0,1,72.533,439.681Z" transform="translate(-45.52 -426.174)"/>
      <path id="Контур_80" data-name="Контур 80" class="cls-13" d="M86.984,425.23a2.97,2.97,0,1,1-2.97-2.97A2.97,2.97,0,0,1,86.984,425.23Z" transform="translate(-49.434 -422.26)"/>
    </g>
    <g id="Сгруппировать_33" data-name="Сгруппировать 33" transform="translate(796.966 145.412)">
      <circle id="Эллипс_16" data-name="Эллипс 16" class="cls-15" cx="16.296" cy="16.296" r="16.296"/>
      <circle id="Эллипс_17" data-name="Эллипс 17" class="cls-16" cx="16.296" cy="16.296" r="16.296" transform="translate(4.085 36.323) rotate(-81.532)"/>
      <circle id="Эллипс_18" data-name="Эллипс 18" class="cls-16" cx="7.412" cy="7.412" r="7.412" transform="translate(15.192 15.192)"/>
    </g>
    <g id="Сгруппировать_25" data-name="Сгруппировать 25" transform="matrix(-0.309, -0.951, 0.951, -0.309, 177.405, 44.173)">
      <g id="Сгруппировать_22" data-name="Сгруппировать 22">
        <line id="Линия_36" data-name="Линия 36" class="cls-17" x2="9.159" y2="9.159"/>
        <line id="Линия_37" data-name="Линия 37" class="cls-17" x1="9.159" y2="9.159"/>
      </g>
      <g id="Сгруппировать_23" data-name="Сгруппировать 23" transform="translate(0 21.069)">
        <line id="Линия_38" data-name="Линия 38" class="cls-18" x2="9.159" y2="9.159"/>
        <line id="Линия_39" data-name="Линия 39" class="cls-18" x1="9.159" y2="9.159"/>
      </g>
      <g id="Сгруппировать_24" data-name="Сгруппировать 24" transform="translate(0 42.139)">
        <line id="Линия_40" data-name="Линия 40" class="cls-9" x2="9.159" y2="9.159" transform="translate(0 0)"/>
        <line id="Линия_41" data-name="Линия 41" class="cls-9" x1="9.159" y2="9.159" transform="translate(0 0)"/>
      </g>
    </g>
  </g>
</svg>
